<?xml version="1.0" encoding="UTF-8"?>
<mxfile host="app.diagrams.net" modified="2024-03-14T17:06:31.675Z" agent="Mozilla/5.0 (Macintosh; Intel Mac OS X 10_15_7) AppleWebKit/537.36 (KHTML, like Gecko) Chrome/122.0.0.0 Safari/537.36" etag="OR3W17uMF-AAyrTnT3WZ" version="24.0.6" type="google">
  <diagram name="Page-1" id="B7msVbZeRuZzZ73zUhjn">
    <mxGraphModel dx="853" dy="648" grid="1" gridSize="10" guides="1" tooltips="1" connect="1" arrows="1" fold="1" page="1" pageScale="1" pageWidth="850" pageHeight="1100" math="0" shadow="0">
      <root>
        <mxCell id="0" />
        <mxCell id="1" parent="0" />
        <mxCell id="qW08WFEPnuO-4RcmpId0-4" style="edgeStyle=orthogonalEdgeStyle;rounded=0;orthogonalLoop=1;jettySize=auto;html=1;exitX=0.5;exitY=1;exitDx=0;exitDy=0;entryX=0.5;entryY=0;entryDx=0;entryDy=0;" parent="1" source="qW08WFEPnuO-4RcmpId0-1" target="qW08WFEPnuO-4RcmpId0-2" edge="1">
          <mxGeometry relative="1" as="geometry" />
        </mxCell>
        <mxCell id="qW08WFEPnuO-4RcmpId0-1" value="Splash Screen<br>1.)" style="ellipse;whiteSpace=wrap;html=1;" parent="1" vertex="1">
          <mxGeometry x="60" y="110" width="120" height="80" as="geometry" />
        </mxCell>
        <mxCell id="qW08WFEPnuO-4RcmpId0-35" style="edgeStyle=orthogonalEdgeStyle;rounded=0;orthogonalLoop=1;jettySize=auto;html=1;exitX=0.5;exitY=1;exitDx=0;exitDy=0;entryX=0.5;entryY=0;entryDx=0;entryDy=0;" parent="1" source="qW08WFEPnuO-4RcmpId0-2" target="qW08WFEPnuO-4RcmpId0-34" edge="1">
          <mxGeometry relative="1" as="geometry" />
        </mxCell>
        <mxCell id="ImO6UBo4x6nVsO7QmWUy-2" style="edgeStyle=orthogonalEdgeStyle;rounded=0;orthogonalLoop=1;jettySize=auto;html=1;exitX=1;exitY=0.5;exitDx=0;exitDy=0;entryX=0;entryY=0.5;entryDx=0;entryDy=0;" parent="1" source="qW08WFEPnuO-4RcmpId0-2" target="ImO6UBo4x6nVsO7QmWUy-1" edge="1">
          <mxGeometry relative="1" as="geometry" />
        </mxCell>
        <mxCell id="qW08WFEPnuO-4RcmpId0-2" value="has ios permissions" style="rhombus;whiteSpace=wrap;html=1;" parent="1" vertex="1">
          <mxGeometry x="70" y="280" width="100" height="100" as="geometry" />
        </mxCell>
        <mxCell id="p8-n8_0udoeVVVdHFg24-24" style="edgeStyle=orthogonalEdgeStyle;rounded=0;orthogonalLoop=1;jettySize=auto;html=1;exitX=1;exitY=0.5;exitDx=0;exitDy=0;entryX=0;entryY=0.5;entryDx=0;entryDy=0;" parent="1" source="qW08WFEPnuO-4RcmpId0-6" target="qW08WFEPnuO-4RcmpId0-29" edge="1">
          <mxGeometry relative="1" as="geometry" />
        </mxCell>
        <mxCell id="qW08WFEPnuO-4RcmpId0-6" value="<br>camera<br>permission" style="shape=manualInput;whiteSpace=wrap;html=1;" parent="1" vertex="1">
          <mxGeometry x="490" y="220" width="80" height="80" as="geometry" />
        </mxCell>
        <mxCell id="qW08WFEPnuO-4RcmpId0-18" style="edgeStyle=orthogonalEdgeStyle;rounded=0;orthogonalLoop=1;jettySize=auto;html=1;exitX=1;exitY=0;exitDx=0;exitDy=0;entryX=0;entryY=0.5;entryDx=0;entryDy=0;" parent="1" source="qW08WFEPnuO-4RcmpId0-7" target="qW08WFEPnuO-4RcmpId0-6" edge="1">
          <mxGeometry relative="1" as="geometry" />
        </mxCell>
        <mxCell id="qW08WFEPnuO-4RcmpId0-7" value="" style="shape=orEllipse;perimeter=ellipsePerimeter;whiteSpace=wrap;html=1;backgroundOutline=1;" parent="1" vertex="1">
          <mxGeometry x="360" y="305" width="50" height="50" as="geometry" />
        </mxCell>
        <mxCell id="qW08WFEPnuO-4RcmpId0-30" style="edgeStyle=orthogonalEdgeStyle;rounded=0;orthogonalLoop=1;jettySize=auto;html=1;exitX=1;exitY=0.5;exitDx=0;exitDy=0;entryX=0.5;entryY=1;entryDx=0;entryDy=0;" parent="1" source="qW08WFEPnuO-4RcmpId0-8" target="qW08WFEPnuO-4RcmpId0-29" edge="1">
          <mxGeometry relative="1" as="geometry" />
        </mxCell>
        <mxCell id="qW08WFEPnuO-4RcmpId0-8" value="<br>location<br>permission" style="shape=manualInput;whiteSpace=wrap;html=1;" parent="1" vertex="1">
          <mxGeometry x="490" y="330" width="80" height="80" as="geometry" />
        </mxCell>
        <mxCell id="qW08WFEPnuO-4RcmpId0-20" style="edgeStyle=orthogonalEdgeStyle;rounded=0;orthogonalLoop=1;jettySize=auto;html=1;exitX=1;exitY=1;exitDx=0;exitDy=0;entryX=-0.012;entryY=0.625;entryDx=0;entryDy=0;entryPerimeter=0;" parent="1" source="qW08WFEPnuO-4RcmpId0-7" target="qW08WFEPnuO-4RcmpId0-8" edge="1">
          <mxGeometry relative="1" as="geometry" />
        </mxCell>
        <mxCell id="qW08WFEPnuO-4RcmpId0-29" value="" style="shape=sumEllipse;perimeter=ellipsePerimeter;whiteSpace=wrap;html=1;backgroundOutline=1;" parent="1" vertex="1">
          <mxGeometry x="747" y="260" width="80" height="80" as="geometry" />
        </mxCell>
        <mxCell id="qW08WFEPnuO-4RcmpId0-32" style="edgeStyle=orthogonalEdgeStyle;rounded=0;orthogonalLoop=1;jettySize=auto;html=1;exitX=0.5;exitY=0;exitDx=0;exitDy=0;entryX=1;entryY=0.375;entryDx=0;entryDy=0;entryPerimeter=0;" parent="1" source="qW08WFEPnuO-4RcmpId0-29" target="qW08WFEPnuO-4RcmpId0-1" edge="1">
          <mxGeometry relative="1" as="geometry" />
        </mxCell>
        <mxCell id="ImO6UBo4x6nVsO7QmWUy-13" style="edgeStyle=orthogonalEdgeStyle;rounded=0;orthogonalLoop=1;jettySize=auto;html=1;exitX=1;exitY=0.5;exitDx=0;exitDy=0;entryX=0;entryY=0.5;entryDx=0;entryDy=0;" parent="1" source="qW08WFEPnuO-4RcmpId0-34" target="ImO6UBo4x6nVsO7QmWUy-4" edge="1">
          <mxGeometry relative="1" as="geometry" />
        </mxCell>
        <mxCell id="ImO6UBo4x6nVsO7QmWUy-16" style="edgeStyle=orthogonalEdgeStyle;rounded=0;orthogonalLoop=1;jettySize=auto;html=1;exitX=0.5;exitY=1;exitDx=0;exitDy=0;entryX=0.5;entryY=0;entryDx=0;entryDy=0;" parent="1" source="qW08WFEPnuO-4RcmpId0-34" target="ImO6UBo4x6nVsO7QmWUy-14" edge="1">
          <mxGeometry relative="1" as="geometry" />
        </mxCell>
        <mxCell id="qW08WFEPnuO-4RcmpId0-34" value="account is authorized" style="rhombus;whiteSpace=wrap;html=1;" parent="1" vertex="1">
          <mxGeometry x="68" y="450" width="104" height="104" as="geometry" />
        </mxCell>
        <mxCell id="ImO6UBo4x6nVsO7QmWUy-3" style="edgeStyle=orthogonalEdgeStyle;rounded=0;orthogonalLoop=1;jettySize=auto;html=1;exitX=1;exitY=0.5;exitDx=0;exitDy=0;entryX=0;entryY=0.5;entryDx=0;entryDy=0;" parent="1" source="ImO6UBo4x6nVsO7QmWUy-1" target="qW08WFEPnuO-4RcmpId0-7" edge="1">
          <mxGeometry relative="1" as="geometry" />
        </mxCell>
        <mxCell id="ImO6UBo4x6nVsO7QmWUy-1" value="ios permissions screen" style="whiteSpace=wrap;html=1;aspect=fixed;" parent="1" vertex="1">
          <mxGeometry x="240" y="290" width="80" height="80" as="geometry" />
        </mxCell>
        <mxCell id="ImO6UBo4x6nVsO7QmWUy-12" style="edgeStyle=orthogonalEdgeStyle;rounded=0;orthogonalLoop=1;jettySize=auto;html=1;exitX=1;exitY=0.5;exitDx=0;exitDy=0;entryX=0;entryY=0.5;entryDx=0;entryDy=0;" parent="1" target="ImO6UBo4x6nVsO7QmWUy-5" edge="1">
          <mxGeometry relative="1" as="geometry">
            <mxPoint x="320" y="502" as="sourcePoint" />
          </mxGeometry>
        </mxCell>
        <mxCell id="ImO6UBo4x6nVsO7QmWUy-4" value="auth<br>screen" style="whiteSpace=wrap;html=1;aspect=fixed;" parent="1" vertex="1">
          <mxGeometry x="240" y="462" width="80" height="80" as="geometry" />
        </mxCell>
        <mxCell id="ImO6UBo4x6nVsO7QmWUy-11" style="edgeStyle=orthogonalEdgeStyle;rounded=0;orthogonalLoop=1;jettySize=auto;html=1;exitX=1;exitY=1;exitDx=0;exitDy=0;entryX=0;entryY=0.5;entryDx=0;entryDy=0;" parent="1" source="ImO6UBo4x6nVsO7QmWUy-5" target="ImO6UBo4x6nVsO7QmWUy-7" edge="1">
          <mxGeometry relative="1" as="geometry" />
        </mxCell>
        <mxCell id="p8-n8_0udoeVVVdHFg24-17" style="edgeStyle=orthogonalEdgeStyle;rounded=0;orthogonalLoop=1;jettySize=auto;html=1;exitX=1;exitY=0;exitDx=0;exitDy=0;" parent="1" source="ImO6UBo4x6nVsO7QmWUy-5" target="ImO6UBo4x6nVsO7QmWUy-6" edge="1">
          <mxGeometry relative="1" as="geometry" />
        </mxCell>
        <mxCell id="ImO6UBo4x6nVsO7QmWUy-5" value="" style="shape=orEllipse;perimeter=ellipsePerimeter;whiteSpace=wrap;html=1;backgroundOutline=1;" parent="1" vertex="1">
          <mxGeometry x="360" y="475" width="54" height="54" as="geometry" />
        </mxCell>
        <mxCell id="ImO6UBo4x6nVsO7QmWUy-6" value="<br>manual entry<br>auth code" style="shape=manualInput;whiteSpace=wrap;html=1;" parent="1" vertex="1">
          <mxGeometry x="490" y="462" width="80" height="80" as="geometry" />
        </mxCell>
        <mxCell id="ImO6UBo4x6nVsO7QmWUy-7" value="QR code<br>/camera" style="whiteSpace=wrap;html=1;aspect=fixed;" parent="1" vertex="1">
          <mxGeometry x="490" y="560" width="80" height="80" as="geometry" />
        </mxCell>
        <mxCell id="p8-n8_0udoeVVVdHFg24-25" style="edgeStyle=orthogonalEdgeStyle;rounded=0;orthogonalLoop=1;jettySize=auto;html=1;exitX=1;exitY=0.75;exitDx=0;exitDy=0;entryX=0;entryY=0.5;entryDx=0;entryDy=0;" parent="1" source="ImO6UBo4x6nVsO7QmWUy-14" target="p8-n8_0udoeVVVdHFg24-2" edge="1">
          <mxGeometry relative="1" as="geometry" />
        </mxCell>
        <mxCell id="ImO6UBo4x6nVsO7QmWUy-14" value="checkout screen<br>2.)" style="whiteSpace=wrap;html=1;aspect=fixed;" parent="1" vertex="1">
          <mxGeometry x="80" y="640" width="80" height="80" as="geometry" />
        </mxCell>
        <mxCell id="ImO6UBo4x6nVsO7QmWUy-19" style="edgeStyle=orthogonalEdgeStyle;rounded=0;orthogonalLoop=1;jettySize=auto;html=1;exitX=0;exitY=0.5;exitDx=0;exitDy=0;entryX=1;entryY=0.5;entryDx=0;entryDy=0;" parent="1" target="ImO6UBo4x6nVsO7QmWUy-14" edge="1">
          <mxGeometry relative="1" as="geometry">
            <mxPoint x="670" y="680" as="sourcePoint" />
          </mxGeometry>
        </mxCell>
        <mxCell id="ImO6UBo4x6nVsO7QmWUy-22" value="no" style="text;html=1;align=center;verticalAlign=middle;resizable=0;points=[];autosize=1;strokeColor=none;fillColor=none;" parent="1" vertex="1">
          <mxGeometry x="170" y="300" width="40" height="30" as="geometry" />
        </mxCell>
        <mxCell id="ImO6UBo4x6nVsO7QmWUy-23" value="no" style="text;html=1;align=center;verticalAlign=middle;resizable=0;points=[];autosize=1;strokeColor=none;fillColor=none;" parent="1" vertex="1">
          <mxGeometry x="172" y="472" width="40" height="30" as="geometry" />
        </mxCell>
        <mxCell id="ImO6UBo4x6nVsO7QmWUy-24" value="yes" style="text;html=1;align=center;verticalAlign=middle;resizable=0;points=[];autosize=1;strokeColor=none;fillColor=none;" parent="1" vertex="1">
          <mxGeometry x="120" y="398" width="40" height="30" as="geometry" />
        </mxCell>
        <mxCell id="ImO6UBo4x6nVsO7QmWUy-25" value="yes" style="text;html=1;align=center;verticalAlign=middle;resizable=0;points=[];autosize=1;strokeColor=none;fillColor=none;" parent="1" vertex="1">
          <mxGeometry x="120" y="585" width="40" height="30" as="geometry" />
        </mxCell>
        <mxCell id="ImO6UBo4x6nVsO7QmWUy-26" value="" style="shape=orEllipse;perimeter=ellipsePerimeter;whiteSpace=wrap;html=1;backgroundOutline=1;" parent="1" vertex="1">
          <mxGeometry x="673" y="640" width="80" height="80" as="geometry" />
        </mxCell>
        <mxCell id="ImO6UBo4x6nVsO7QmWUy-29" style="edgeStyle=orthogonalEdgeStyle;rounded=0;orthogonalLoop=1;jettySize=auto;html=1;exitX=1;exitY=0.5;exitDx=0;exitDy=0;entryX=0.725;entryY=0.05;entryDx=0;entryDy=0;entryPerimeter=0;" parent="1" source="ImO6UBo4x6nVsO7QmWUy-6" target="ImO6UBo4x6nVsO7QmWUy-26" edge="1">
          <mxGeometry relative="1" as="geometry" />
        </mxCell>
        <mxCell id="ImO6UBo4x6nVsO7QmWUy-30" style="edgeStyle=orthogonalEdgeStyle;rounded=0;orthogonalLoop=1;jettySize=auto;html=1;exitX=1;exitY=0.5;exitDx=0;exitDy=0;entryX=0.263;entryY=0.013;entryDx=0;entryDy=0;entryPerimeter=0;" parent="1" source="ImO6UBo4x6nVsO7QmWUy-7" target="ImO6UBo4x6nVsO7QmWUy-26" edge="1">
          <mxGeometry relative="1" as="geometry" />
        </mxCell>
        <mxCell id="p8-n8_0udoeVVVdHFg24-6" style="edgeStyle=orthogonalEdgeStyle;rounded=0;orthogonalLoop=1;jettySize=auto;html=1;exitX=1;exitY=0.25;exitDx=0;exitDy=0;entryX=0;entryY=0.5;entryDx=0;entryDy=0;" parent="1" source="p8-n8_0udoeVVVdHFg24-2" target="p8-n8_0udoeVVVdHFg24-5" edge="1">
          <mxGeometry relative="1" as="geometry" />
        </mxCell>
        <mxCell id="p8-n8_0udoeVVVdHFg24-2" value="settings screen" style="whiteSpace=wrap;html=1;aspect=fixed;" parent="1" vertex="1">
          <mxGeometry x="240" y="755" width="80" height="80" as="geometry" />
        </mxCell>
        <mxCell id="p8-n8_0udoeVVVdHFg24-10" style="edgeStyle=orthogonalEdgeStyle;rounded=0;orthogonalLoop=1;jettySize=auto;html=1;exitX=1;exitY=0.5;exitDx=0;exitDy=0;entryX=0;entryY=0.5;entryDx=0;entryDy=0;" parent="1" source="p8-n8_0udoeVVVdHFg24-5" target="p8-n8_0udoeVVVdHFg24-9" edge="1">
          <mxGeometry relative="1" as="geometry" />
        </mxCell>
        <mxCell id="p8-n8_0udoeVVVdHFg24-5" value="deauthorize" style="rounded=0;whiteSpace=wrap;html=1;" parent="1" vertex="1">
          <mxGeometry x="414" y="760" width="120" height="30" as="geometry" />
        </mxCell>
        <mxCell id="p8-n8_0udoeVVVdHFg24-7" style="edgeStyle=orthogonalEdgeStyle;rounded=0;orthogonalLoop=1;jettySize=auto;html=1;exitX=1;exitY=0.25;exitDx=0;exitDy=0;entryX=0;entryY=0.5;entryDx=0;entryDy=0;" parent="1" target="p8-n8_0udoeVVVdHFg24-8" edge="1">
          <mxGeometry relative="1" as="geometry">
            <mxPoint x="319" y="819" as="sourcePoint" />
          </mxGeometry>
        </mxCell>
        <mxCell id="p8-n8_0udoeVVVdHFg24-8" value="reader settings" style="rounded=0;whiteSpace=wrap;html=1;" parent="1" vertex="1">
          <mxGeometry x="413" y="804" width="120" height="30" as="geometry" />
        </mxCell>
        <mxCell id="p8-n8_0udoeVVVdHFg24-11" style="edgeStyle=orthogonalEdgeStyle;rounded=0;orthogonalLoop=1;jettySize=auto;html=1;exitX=0.5;exitY=0;exitDx=0;exitDy=0;entryX=0.5;entryY=0;entryDx=0;entryDy=0;" parent="1" source="p8-n8_0udoeVVVdHFg24-9" target="p8-n8_0udoeVVVdHFg24-2" edge="1">
          <mxGeometry relative="1" as="geometry" />
        </mxCell>
        <mxCell id="p8-n8_0udoeVVVdHFg24-16" style="edgeStyle=orthogonalEdgeStyle;rounded=0;orthogonalLoop=1;jettySize=auto;html=1;exitX=1;exitY=0.5;exitDx=0;exitDy=0;entryX=0.5;entryY=0;entryDx=0;entryDy=0;" parent="1" edge="1">
          <mxGeometry relative="1" as="geometry">
            <mxPoint x="680" y="776" as="sourcePoint" />
            <mxPoint x="280" y="463" as="targetPoint" />
            <Array as="points">
              <mxPoint x="790" y="776" />
              <mxPoint x="790" y="431" />
              <mxPoint x="280" y="431" />
            </Array>
          </mxGeometry>
        </mxCell>
        <mxCell id="p8-n8_0udoeVVVdHFg24-9" value="success" style="rhombus;whiteSpace=wrap;html=1;" parent="1" vertex="1">
          <mxGeometry x="600" y="735" width="80" height="80" as="geometry" />
        </mxCell>
        <mxCell id="p8-n8_0udoeVVVdHFg24-15" value="no" style="text;html=1;align=center;verticalAlign=middle;resizable=0;points=[];autosize=1;strokeColor=none;fillColor=none;" parent="1" vertex="1">
          <mxGeometry x="610" y="714" width="40" height="30" as="geometry" />
        </mxCell>
        <mxCell id="p8-n8_0udoeVVVdHFg24-18" value="yes" style="text;html=1;align=center;verticalAlign=middle;resizable=0;points=[];autosize=1;strokeColor=none;fillColor=none;" parent="1" vertex="1">
          <mxGeometry x="673" y="744" width="40" height="30" as="geometry" />
        </mxCell>
        <mxCell id="p8-n8_0udoeVVVdHFg24-19" value="success" style="text;html=1;align=center;verticalAlign=middle;resizable=0;points=[];autosize=1;strokeColor=none;fillColor=none;" parent="1" vertex="1">
          <mxGeometry x="570" y="570" width="70" height="30" as="geometry" />
        </mxCell>
        <mxCell id="p8-n8_0udoeVVVdHFg24-20" value="success" style="text;html=1;align=center;verticalAlign=middle;resizable=0;points=[];autosize=1;strokeColor=none;fillColor=none;" parent="1" vertex="1">
          <mxGeometry x="570" y="472" width="70" height="30" as="geometry" />
        </mxCell>
        <mxCell id="p8-n8_0udoeVVVdHFg24-21" value="granted" style="text;html=1;align=center;verticalAlign=middle;resizable=0;points=[];autosize=1;strokeColor=none;fillColor=none;" parent="1" vertex="1">
          <mxGeometry x="575" y="340" width="60" height="30" as="geometry" />
        </mxCell>
        <mxCell id="p8-n8_0udoeVVVdHFg24-22" value="granted" style="text;html=1;align=center;verticalAlign=middle;resizable=0;points=[];autosize=1;strokeColor=none;fillColor=none;" parent="1" vertex="1">
          <mxGeometry x="570" y="230" width="60" height="30" as="geometry" />
        </mxCell>
        <mxCell id="p8-n8_0udoeVVVdHFg24-53" value="ad 1.) Prerequisites" style="shape=table;startSize=30;container=1;collapsible=0;childLayout=tableLayout;fixedRows=1;rowLines=0;fontStyle=0;strokeColor=default;fontSize=16;" parent="1" vertex="1">
          <mxGeometry x="39" y="6" width="407" height="90" as="geometry" />
        </mxCell>
        <mxCell id="p8-n8_0udoeVVVdHFg24-57" value="" style="shape=tableRow;horizontal=0;startSize=0;swimlaneHead=0;swimlaneBody=0;top=0;left=0;bottom=0;right=0;collapsible=0;dropTarget=0;fillColor=none;points=[[0,0.5],[1,0.5]];portConstraint=eastwest;strokeColor=inherit;fontSize=16;" parent="p8-n8_0udoeVVVdHFg24-53" vertex="1">
          <mxGeometry y="30" width="407" height="30" as="geometry" />
        </mxCell>
        <mxCell id="p8-n8_0udoeVVVdHFg24-58" value="1" style="shape=partialRectangle;html=1;whiteSpace=wrap;connectable=0;fillColor=none;top=0;left=0;bottom=0;right=0;overflow=hidden;strokeColor=inherit;fontSize=16;" parent="p8-n8_0udoeVVVdHFg24-57" vertex="1">
          <mxGeometry width="91" height="30" as="geometry">
            <mxRectangle width="91" height="30" as="alternateBounds" />
          </mxGeometry>
        </mxCell>
        <mxCell id="p8-n8_0udoeVVVdHFg24-59" value="Application ID" style="shape=partialRectangle;html=1;whiteSpace=wrap;connectable=0;fillColor=none;top=0;left=0;bottom=0;right=0;align=left;spacingLeft=6;overflow=hidden;strokeColor=inherit;fontSize=16;" parent="p8-n8_0udoeVVVdHFg24-57" vertex="1">
          <mxGeometry x="91" width="316" height="30" as="geometry">
            <mxRectangle width="316" height="30" as="alternateBounds" />
          </mxGeometry>
        </mxCell>
        <mxCell id="p8-n8_0udoeVVVdHFg24-60" value="" style="shape=tableRow;horizontal=0;startSize=0;swimlaneHead=0;swimlaneBody=0;top=0;left=0;bottom=0;right=0;collapsible=0;dropTarget=0;fillColor=none;points=[[0,0.5],[1,0.5]];portConstraint=eastwest;strokeColor=inherit;fontSize=16;" parent="p8-n8_0udoeVVVdHFg24-53" vertex="1">
          <mxGeometry y="60" width="407" height="30" as="geometry" />
        </mxCell>
        <mxCell id="p8-n8_0udoeVVVdHFg24-61" value="2" style="shape=partialRectangle;html=1;whiteSpace=wrap;connectable=0;fillColor=none;top=0;left=0;bottom=0;right=0;overflow=hidden;strokeColor=inherit;fontSize=16;" parent="p8-n8_0udoeVVVdHFg24-60" vertex="1">
          <mxGeometry width="91" height="30" as="geometry">
            <mxRectangle width="91" height="30" as="alternateBounds" />
          </mxGeometry>
        </mxCell>
        <mxCell id="p8-n8_0udoeVVVdHFg24-62" value="Repository Password" style="shape=partialRectangle;html=1;whiteSpace=wrap;connectable=0;fillColor=none;top=0;left=0;bottom=0;right=0;align=left;spacingLeft=6;overflow=hidden;strokeColor=inherit;fontSize=16;" parent="p8-n8_0udoeVVVdHFg24-60" vertex="1">
          <mxGeometry x="91" width="316" height="30" as="geometry">
            <mxRectangle width="316" height="30" as="alternateBounds" />
          </mxGeometry>
        </mxCell>
        <mxCell id="p8-n8_0udoeVVVdHFg24-63" value="ad 2.) Prerequisites for Reader" style="shape=table;startSize=30;container=1;collapsible=0;childLayout=tableLayout;fixedRows=1;rowLines=0;fontStyle=0;strokeColor=default;fontSize=16;" parent="1" vertex="1">
          <mxGeometry x="479" y="7" width="407" height="90" as="geometry" />
        </mxCell>
        <mxCell id="p8-n8_0udoeVVVdHFg24-64" value="" style="shape=tableRow;horizontal=0;startSize=0;swimlaneHead=0;swimlaneBody=0;top=0;left=0;bottom=0;right=0;collapsible=0;dropTarget=0;fillColor=none;points=[[0,0.5],[1,0.5]];portConstraint=eastwest;strokeColor=inherit;fontSize=16;" parent="p8-n8_0udoeVVVdHFg24-63" vertex="1">
          <mxGeometry y="30" width="407" height="30" as="geometry" />
        </mxCell>
        <mxCell id="p8-n8_0udoeVVVdHFg24-65" value="1" style="shape=partialRectangle;html=1;whiteSpace=wrap;connectable=0;fillColor=none;top=0;left=0;bottom=0;right=0;overflow=hidden;strokeColor=inherit;fontSize=16;" parent="p8-n8_0udoeVVVdHFg24-64" vertex="1">
          <mxGeometry width="91" height="30" as="geometry">
            <mxRectangle width="91" height="30" as="alternateBounds" />
          </mxGeometry>
        </mxCell>
        <mxCell id="p8-n8_0udoeVVVdHFg24-66" value="Verify Identity (TIN or SS#)" style="shape=partialRectangle;html=1;whiteSpace=wrap;connectable=0;fillColor=none;top=0;left=0;bottom=0;right=0;align=left;spacingLeft=6;overflow=hidden;strokeColor=inherit;fontSize=16;" parent="p8-n8_0udoeVVVdHFg24-64" vertex="1">
          <mxGeometry x="91" width="316" height="30" as="geometry">
            <mxRectangle width="316" height="30" as="alternateBounds" />
          </mxGeometry>
        </mxCell>
        <mxCell id="p8-n8_0udoeVVVdHFg24-67" value="" style="shape=tableRow;horizontal=0;startSize=0;swimlaneHead=0;swimlaneBody=0;top=0;left=0;bottom=0;right=0;collapsible=0;dropTarget=0;fillColor=none;points=[[0,0.5],[1,0.5]];portConstraint=eastwest;strokeColor=inherit;fontSize=16;" parent="p8-n8_0udoeVVVdHFg24-63" vertex="1">
          <mxGeometry y="60" width="407" height="30" as="geometry" />
        </mxCell>
        <mxCell id="p8-n8_0udoeVVVdHFg24-68" value="2" style="shape=partialRectangle;html=1;whiteSpace=wrap;connectable=0;fillColor=none;top=0;left=0;bottom=0;right=0;overflow=hidden;strokeColor=inherit;fontSize=16;" parent="p8-n8_0udoeVVVdHFg24-67" vertex="1">
          <mxGeometry width="91" height="30" as="geometry">
            <mxRectangle width="91" height="30" as="alternateBounds" />
          </mxGeometry>
        </mxCell>
        <mxCell id="p8-n8_0udoeVVVdHFg24-69" value="Link bank account" style="shape=partialRectangle;html=1;whiteSpace=wrap;connectable=0;fillColor=none;top=0;left=0;bottom=0;right=0;align=left;spacingLeft=6;overflow=hidden;strokeColor=inherit;fontSize=16;" parent="p8-n8_0udoeVVVdHFg24-67" vertex="1">
          <mxGeometry x="91" width="316" height="30" as="geometry">
            <mxRectangle width="316" height="30" as="alternateBounds" />
          </mxGeometry>
        </mxCell>
      </root>
    </mxGraphModel>
  </diagram>
</mxfile>
